<?xml version="1.0" encoding="UTF-8"?> <!-- Generator: Adobe Illustrator 23.0.2, SVG Export Plug-In . SVG Version: 6.00 Build 0) --> <svg xmlns="http://www.w3.org/2000/svg" xmlns:xlink="http://www.w3.org/1999/xlink" id="Layer_1" x="0px" y="0px" viewBox="0 0 190.8 26.6" style="enable-background:new 0 0 190.8 26.6;" xml:space="preserve"> <style type="text/css"> .st0{fill:#4267B2;} </style> <title>FBBAsset 1</title> <g> <g id="Layer_1-2"> <g id="_Group_"> <g id="_Group_2"> <path id="_Compound_Path_" class="st0" d="M10.7,4.2c-1.6,0-2.1,0.7-2.1,2.3v2.6H13l-0.4,4.2H8.7v12.9H3.5V13.3H0V9.1h3.5V6.5 C3.5,2.3,5.2,0,10,0c1,0,2,0.1,3,0.2v4L10.7,4.2z"></path> <path id="_Compound_Path_2" class="st0" d="M13.3,17.1c0-4.8,2.3-8.4,7-8.4c2.1-0.1,4.1,1.1,4.9,3V9.1h5v17.1h-5v-2.6 c-0.9,1.9-2.8,3.1-4.9,2.9c-4.7,0-7-3.6-7-8.4V17.1z M18.5,18.2c0,2.5,0.9,4.2,3.3,4.2c2.1,0,3.2-1.5,3.2-4v-1.7 c0-2.4-1.1-4-3.2-4c-2.4,0-3.3,1.7-3.3,4.2V18.2z"></path> <path id="_Compound_Path_3" class="st0" d="M41,8.7c1.7-0.1,3.5,0.3,5,1.1l-1.2,3.7c-1.1-0.5-2.3-0.8-3.5-0.8 c-2.8,0-4,1.6-4,4.4v1c0,2.8,1.2,4.4,4,4.4c1.2,0,2.4-0.3,3.5-0.8l1.2,3.7c-1.5,0.8-3.3,1.2-5,1.1c-6.1,0-8.8-3.3-8.8-8.5v-0.8 C32.2,12,34.9,8.7,41,8.7z"></path> <path id="_Compound_Path_4" class="st0" d="M46.6,18.3v-1.5c0-4.8,2.8-8,8.4-8c5.3,0,7.7,3.2,7.7,8v2.7H51.8 c0.1,2.3,1.2,3.4,4,3.4c1.9,0,3.7-0.3,5.5-1l0.9,3.5c-2.1,0.9-4.4,1.3-6.6,1.3C49.1,26.6,46.6,23.3,46.6,18.3z M51.8,16.1H58 v-0.4c0-1.9-0.8-3.3-3-3.3S51.8,13.8,51.8,16.1z"></path> <path id="_Compound_Path_5" class="st0" d="M81.9,18.2c0,4.8-2.3,8.4-7,8.4c-2.1,0.1-4.2-1-5.1-2.9v2.6h-4.9V0.5L70,0v11.5 c0.9-1.8,2.8-2.8,4.8-2.7c4.7,0,7,3.6,7,8.4L81.9,18.2z M76.7,17c0-2.4-0.9-4.2-3.4-4.2c-2.1,0-3.3,1.5-3.3,3.9v1.8 c0,2.5,1.2,4,3.3,4c2.5,0,3.4-1.8,3.4-4.2V17z"></path> <path id="_Compound_Path_6" class="st0" d="M83.6,18.1v-0.9c0-4.9,2.8-8.5,8.5-8.5s8.5,3.6,8.5,8.5v0.9c0,4.9-2.8,8.5-8.5,8.5 S83.6,23,83.6,18.1z M95.4,16.9c0-2.3-0.9-4.1-3.3-4.1s-3.3,1.8-3.3,4.1v1.6c0,2.3,0.9,4.1,3.3,4.1s3.3-1.8,3.3-4.1V16.9z"></path> <path id="_Compound_Path_7" class="st0" d="M102.3,18.1v-0.9c0-4.9,2.8-8.5,8.5-8.5s8.5,3.6,8.5,8.5v0.9c0,4.9-2.8,8.5-8.5,8.5 S102.3,23,102.3,18.1z M114.2,16.9c0-2.3-0.9-4.1-3.3-4.1s-3.3,1.8-3.3,4.1v1.6c0,2.3,0.9,4.1,3.3,4.1s3.3-1.8,3.3-4.1V16.9z"></path> <path id="_Compound_Path_8" class="st0" d="M126.5,17.2l5.1-8.1h5.5l-5.4,8.4l5.6,8.7h-5.5l-5.3-8.4v8.4h-5.2V0.5l5.2-0.5V17.2z "></path> </g> </g> </g> </g> <g> <path class="st0" d="M157,24c-1,1.3-3,2.6-5.1,2.6c-2.9,0-5.1-1.8-5.1-4.4c0-3.1,2.5-5.3,10.2-5.8c0,0,0-1.3,0-1.5 c0-2.5-1.2-4.1-4-4.1c-2,0-4.2,1.1-5.5,2.1l-0.4-1.5c1.5-1.1,4-2,6-2c3.1,0,5.4,1.5,5.4,5.4c0,0.2,0,8.9,0,8.9c0,1,0.3,1.8,1.7,1.7 l-0.1,1.1C158.4,26.6,157.2,25.8,157,24L157,24z M156.9,17.4c-6.4,0.6-8.7,2.2-8.7,4.6c0,2.1,1.8,3.2,3.9,3.2 c2.1,0,3.8-1.3,4.8-2.6V17.4z"></path> <path class="st0" d="M174.9,1.9l1.5-0.5v24.7h-1.5v-1.6c-1,0.9-2.8,2-5,2c-4.2,0-7.4-3.3-7.4-8.4c0-5.3,3.3-8.7,7.9-8.7 c1.6,0,3.3,0.6,4.5,1.3V1.9z M170.3,10.9c-3.7,0-6.3,2.9-6.3,7.3c0,4,2.4,7.1,6,7.1c1.8,0,3.6-0.9,4.9-2.1V12.2 C173.8,11.4,172,10.9,170.3,10.9z"></path> <path class="st0" d="M185.2,26.6c-1.9,0-3.7-0.6-5-1.4l0.5-1.4c1.4,0.9,3,1.5,4.6,1.5c2.1,0,4.2-1.1,4.2-3.2c0-2.4-2.2-3-4.4-3.7 c-2.2-0.8-4.6-1.8-4.6-4.5c0-3,2.3-4.5,5.2-4.5c1.7,0,3.4,0.5,4.7,1.2l-0.5,1.3c-1.4-0.8-2.8-1.3-4.3-1.3c-2.2,0-3.7,1.2-3.7,3 c0,2.2,2.2,2.8,4.3,3.5c2.3,0.8,4.7,1.7,4.7,4.8C190.8,24.8,188.3,26.6,185.2,26.6z"></path> </g> </svg> 