<?xml version="1.0" encoding="UTF-8"?> <!-- Generator: Adobe Illustrator 22.1.0, SVG Export Plug-In . SVG Version: 6.00 Build 0) --> <svg xmlns="http://www.w3.org/2000/svg" xmlns:xlink="http://www.w3.org/1999/xlink" id="Layer_1" x="0px" y="0px" viewBox="0 0 1247 223.9" style="enable-background:new 0 0 1247 223.9;" xml:space="preserve"> <style type="text/css"> .st0{fill:#5E6369;} .st1{fill:#FFBB00;} .st2{fill:#2483FC;} .st3{fill:#00AC47;} </style> <g> <path class="st0" d="M405.6,35.9c-39.9,0-73.1,32.1-73.1,71.7s33.2,71.3,73.1,71.3c21.5,0,37.4-7.1,50.2-20.1 c13.1-13.1,17-31.1,17-45.6c0-4.6-0.4-8.8-1.1-12.4h-66v19.4h47c-1.4,10.9-4.9,19.1-10.6,24.7c-6.7,6.7-17.7,14.5-36.4,14.5 c-29,0-51.6-23.3-51.6-51.9s22.6-51.9,51.6-51.9c15.5,0,27.2,6,35.3,14.1L454.7,56C443,44.7,427.5,35.9,405.6,35.9z M530.1,87.1 c-25.1,0-45.9,19.4-45.9,46.6c0,26.8,20.5,46.6,45.9,46.6s45.9-19.8,45.9-46.6S555.2,87.1,530.1,87.1 M530.1,162 c-13.8,0-25.8-11.7-25.8-28.3s12-28.3,25.8-28.3s25.8,11.3,25.8,28.3C555.9,150.4,543.9,162,530.1,162 M632.6,87.1 c-25.4,0-45.9,19.4-45.9,46.6c0,26.8,20.5,46.6,45.9,46.6c25.1,0,45.9-19.8,45.9-46.6S658.1,87.1,632.6,87.1 M632.6,162 c-13.8,0-25.8-11.7-25.8-28.3s12-28.3,25.8-28.3s25.8,11.3,25.8,28.3C658.4,150.4,646.8,162,632.6,162 M734,86.2 c-23.2,0-44.3,20.4-44.3,46.8c0,26.1,21.1,46.4,44.3,46.4c11.1,0,19.6-5,24.3-10.7h0.7v6.8c0,17.9-9.3,27.5-24.7,27.5 c-12.5,0-20-8.9-23.2-16.4l-17.9,7.5c5,12.5,18.6,27.5,41.1,27.5c23.9,0,43.9-14.3,43.9-48.6V89.4H759v7.5h-0.7 C753.6,91.2,745,86.2,734,86.2 M735.8,161.3c-14.1,0-25.9-11.7-25.9-27.9s11.9-28.3,25.9-28.3c14.1,0,24.9,12,24.9,28.3 S749.9,161.3,735.8,161.3 M794.8,41.6H815v136.3h-20.1V41.6z M869.7,87.1c-24,0-44.1,18.7-44.1,46.6c0,26.1,19.8,46.6,46.3,46.6 c21.5,0,33.9-13.1,38.9-20.5l-15.9-10.6c-5.3,7.8-12.7,12.7-23,12.7c-10.6,0-18-4.6-22.6-14.1l62.5-25.8l-2.1-5.3 C905.7,106.6,893.7,87.1,869.7,87.1 M845.6,132.3c-0.7-18,14.1-27.2,24.4-27.2c8.1,0,15.2,3.9,17.3,9.9L845.6,132.3z"></path> </g> <g> <path class="st0" d="M957.2,176.5L1005,49.5h18.5l47.8,127.1h-18.1l-12.3-34.4h-53.2l-12.3,34.4H957.2z M993,126.9h42.4l-20.6-57.2 h-0.7L993,126.9z"></path> </g> <g> <path class="st0" d="M1085.4,166c-8-9.1-11.9-19.9-11.9-32.9c0-12.7,4-23.5,11.9-32.9c8.3-9.1,17.7-13.4,29.3-13.4 c6.5,0,12.3,1.4,17.4,4c5.4,2.9,9.4,6.2,12.3,10.9h0.7l-0.7-11.9V49.5h16.3v127.1h-15.6v-11.9h-0.7c-2.9,4.3-6.9,8-12.3,10.9 c-5.4,2.9-11.2,4-17.4,4C1103.1,179.4,1093.3,175.1,1085.4,166 M1136.8,155.9c5.4-5.8,8-13.4,8-22.8c0-9.1-2.5-16.7-8-22.4 c-5.1-5.8-11.6-8.7-19.5-8.7c-8,0-14.5,2.9-19.5,8.7c-5.4,5.8-8,13.4-8,22.4s2.5,16.7,8,22.4c5.4,5.8,11.9,8.7,19.5,8.7 C1125.2,164.6,1131.7,161.7,1136.8,155.9"></path> </g> <g> <path class="st0" d="M1235,171.5c-6.5,5.1-14.8,8-25,8c-8.7,0-16.3-2.2-23.2-6.9c-6.5-4.7-11.2-10.5-14.1-18.1l14.5-6.2 c2.2,5.1,5.1,9.4,9.4,12.3c4,2.9,8.7,4.3,13.4,4.3c5.1,0,9.4-1.1,13-3.3c3.6-2.2,5.1-5.1,5.1-8c0-5.4-4.3-9.8-12.7-12.3l-14.8-3.6 c-17-4.3-25.3-12.3-25.3-24.6c0-8,3.3-14.1,9.8-19.2c6.5-4.7,14.8-7.2,24.6-7.2c7.6,0,14.5,1.8,21,5.4c6.2,3.6,10.5,8.7,13,14.8 l-14.5,6.2c-1.8-3.6-4.3-6.5-8-8.7c-3.6-2.2-8-3.3-12.7-3.3c-4.3,0-8,1.1-11.6,3.3c-3.3,2.2-5.1,4.7-5.1,8c0,5.1,4.7,8.7,14.1,10.5 l13,3.3c17.4,4.3,25.7,13,25.7,26.1C1245.1,159.9,1241.5,166.4,1235,171.5"></path> </g> <g> <path class="st1" d="M129.4,4.8c-17.4-10-39.5-4-49.5,13.4L7.6,143.9c-10,17.4-4,39.5,13.4,49.5c17.4,10,39.5,4,49.5-13.4 l72.4-125.7C152.8,36.9,146.8,14.8,129.4,4.8z"></path> <path class="st2" d="M93.4,4.8c17.4-10,39.5-4,49.5,13.4l72.4,125.7c10,17.4,4,39.5-13.4,49.5c-17.4,10-39.5,4-49.5-13.4L80,54.3 C70,36.9,76,14.8,93.4,4.8z"></path> <circle class="st3" cx="39" cy="161.9" r="36.2"></circle> </g> </svg> 